<?xml version="1.0" encoding="utf-8"?><svg viewBox="0 0 502.66 502.66" xmlns="http://www.w3.org/2000/svg" xmlns:xlink="http://www.w3.org/1999/xlink"><style>:root>svg{display:none}:root>svg:target{display:block}</style><svg viewBox="0 0 217 112" id="Rosneft" xmlns="http://www.w3.org/2000/svg"><g clip-path="url(#aa)" fill-rule="evenodd" clip-rule="evenodd"><path d="M82.718 83.66v-1.925h-4.886v1.925h-.571v-4.13h.57v1.791h4.886v-1.79h.564v4.13h-.564zm2.485 0v-4.13h4.867v.412h-4.305v1.379h4.191v.409h-4.191v1.516h4.305v.414h-4.867zm14.743-1.82v-.515c0-.982-.486-1.476-2.027-1.476H96.24v-.367h-.572v.367h-1.657c-1.55 0-2.037.411-2.037 1.476v.514c0 1.05.55 1.414 2.037 1.414h1.657v.406h.572v-.406h1.678c1.48 0 2.027-.344 2.027-1.414zm-.573 0c0 .795-.384 1.004-1.454 1.004H96.24v-2.582h1.678c1.016 0 1.454.239 1.454 1.04v.537zm-3.704 1.004h-1.657c-1.071 0-1.48-.21-1.48-1.01v-.55c0-.79.448-1.022 1.48-1.022h1.657v2.582zm8.625-2.902v3.718h.569v-3.718h2.687v-.412h-5.923v.412h2.667zm10.428 3.718v-4.128h-3.704c-1.367 0-1.931.34-1.931 1.278 0 .776.564 1.139 1.642 1.139l-1.87 1.713h.792l1.759-1.713h2.739v1.713h.573v-.002zm-.573-2.12h-3.31c-.88 0-1.187-.115-1.187-.73 0-.64.322-.868 1.131-.868h3.366v1.598zm8.098 2.12v-1.925h-4.883v1.925h-.568v-4.13h.568v1.791h4.883v-1.79h.571v4.13h-.571zm8.649 0l-2.848-4.128h-.875l-2.846 4.129h.628l.707-1.036h3.866l.701 1.035h.667zm-1.665-1.457h-3.26l1.626-2.376 1.634 2.376zm8.16 1.457v-1.713h-2.738l-1.769 1.713h-.78l1.857-1.713c-1.077 0-1.634-.362-1.634-1.138 0-.94.557-1.279 1.925-1.279h3.712v4.13h-.573zm0-3.718h-3.365c-.807 0-1.142.226-1.142.868 0 .616.311.73 1.196.73h3.311v-1.598zm11.121 3.718h.999l-3.976-2.164 3.887-1.966h-1.008l-3.47 1.772h-.924V79.53h-.57v4.13h.57v-1.943h.947l3.545 1.943zm8.397-1.416c0 .808-.269 1.003-1.424 1.003h-2.405c-1.071 0-1.471-.207-1.471-1.003v-1.318c0-.803.438-1.02 1.471-1.02h2.405c1.097 0 1.424.203 1.424 1.02v1.318zm.564 0v-1.292c0-1.2-.655-1.47-1.988-1.47h-2.4c-1.561 0-2.046.422-2.046 1.47v1.292c0 1.06.553 1.416 2.046 1.416h2.4c1.462 0 1.988-.24 1.988-1.416zm8.648-2.714h1.223v4.13h-.57v-3.795h-.317l-2.967 3.795h-.292l-2.963-3.795h-.321v3.795h-.566v-4.13h1.216l2.787 3.522 2.77-3.522zm3.838 4.13v-3.718h4.871v3.718h.575v-4.13h-6.023v4.13h.577zm12.859 0l-.699-1.035h-3.866l-.717 1.035h-.628l2.852-4.128h.865l2.848 4.129h-.655zm-2.626-3.834l-1.637 2.376h3.266l-1.629-2.376zm10.932 3.834v-4.13h-.566v1.791h-4.876v-1.79h-.577v4.13h.577v-1.926h4.876v1.925h.566zm7.977 0v-4.13h-1.11l-4.345 3.809h-.05V79.53h-.562v4.13h.925l4.357-3.81h.21v3.81h.575zm6.877-2.12h-3.318c-.885 0-1.182-.115-1.182-.73 0-.64.313-.868 1.12-.868h3.38v1.598zm.559 2.12v-4.128h-3.7c-1.359 0-1.93.34-1.93 1.278 0 .776.571 1.139 1.646 1.139l-1.877 1.713h.802l1.75-1.713h2.75v1.713h.559v-.002zM77.211 89.778s12.38-.167 13.371.5c.99.656 1.98 1.326 2.146 2.643.164 1.325-.66 5.455-3.797 5.623-3.133.165-6.76-.168-6.76-.168l-.162 3.309-4.95-.165.152-11.742z"/><path d="M82.331 93.084l-.16 1.988s3.956.824 4.78 0c.826-.825.164-2.15-1.152-2.15-1.317 0-3.468.162-3.468.162zM92.729 92.922c1.326-1.486 3.634-3.803 8.905-3.475 5.281.333 8.092 2.477 8.092 4.972 0 2.472.156 5.778-2.978 6.766-3.13.997-6.27.997-8.413.672-2.145-.335-5.606-2.323-6.1-4.965-.496-2.646.494-3.97.494-3.97z"/><path d="M97.681 96.061c-.301-2.136 1.48-3.474 2.964-3.474 1.483 0 3.952.168 3.789 2.981-.161 2.809-.32 2.643-1.804 3.142-1.486.495-4.457.996-4.949-2.649zM127.367 94.419c-.821-1.497-2.63-4.313-5.441-4.472-2.803-.167-6.6-.5-8.413.159-1.819.668-3.292 2.315-3.626 3.804-.328 1.493-.668 4.8 1.483 6.287 2.142 1.489 5.615 2.65 8.909 1.985 3.293-.66 6.43-1.985 6.926-4.797H121.6s-1.492 1.987-3.3 1.82c0 0-1.661.501-2.811-1.15-1.148-1.662-.987-3.148.164-4.638 1.165-1.493 4.293-.997 4.625-.333.327.663.823 1.653.823 1.653l6.266-.318z"/><path d="M126.877 90.106h5.117v3.974h5.105v-4.302h5.285v11.907h-4.954v-3.968h-5.271v3.968h-5.448l.166-11.58zm17.161-.328l14.682.168v2.976h-8.906v1.158h7.424v3.305h-7.759v1.495h9.568v3.137h-14.846l-.163-12.239z"/><path d="M166.306 89.778h5.116s-.327.83.34.666c.649-.166 5.104-.34 6.429 1.322 1.316 1.65 1.815 3.801.49 5.29-1.325 1.49-2.478 2.149-3.294 2.149-.833 0-3.625.166-3.625.166v2.646h-5.456v-2.812s-3.466-.166-4.62-.495c-1.149-.333-3.3-1.653-3.3-3.802 0-2.152 1.156-3.973 2.812-4.134 1.642-.165 4.778-.165 4.778-.165l.33-.83z"/><path d="M166.306 93.416l-.164 2.48s-2.638.332-2.638-.654c0-.996.498-1.99 2.802-1.826zm5.455.165l.156 2.316s1.485.664 2.316-.494c.815-1.157-.669-1.986-2.472-1.822zM182.143 93.416v8.766h5.277v-8.766h4.781l.999-1.319-1.484-1.819h-13.858c.003 0-.663 2.644.821 2.805 1.483.17 3.464.333 3.464.333z"/><path d="M197.484 90.278v3.303s6.275-.328 7.431.328c1.154.664 2.308 1.66 2.472 2.81.164 1.165-.164 2.987-1.318 3.974-1.154.992-2.47 1.652-3.801 1.652h-9.56v-11.9l4.776-.167z"/><path d="M197.987 97.057v1.982h3.294c.821 0 1.981-1.817.493-2.147-1.482-.332-3.787.165-3.787.165zM9.574 35.21h8.417v28.61l-8.417-7.446V35.21zm10.068-9.425h8.084v47.297l-8.084-7.783V25.785zm9.736-9.425h8.25v44.811h-8.25v-44.81zm9.894-9.425h8.58v44.977h-8.58V6.935zm9.734 8.925h8.252v45.312h-8.252V15.86zm10.232 9.751h8.083v39.524l-8.083 7.947v-47.47zm9.564 9.431h8.256v20.674l-8.256 8.104V35.042zM29.378 62.171h8.25v41.493h-8.25V62.171zm9.894-8.93h8.08v50.423h-8.08V53.241zm9.734 9.089h8.252v41.333h-8.252V62.329z"/></g><defs><clipPath id="aa"><path d="M0 0h217v112H0z"/></clipPath></defs></svg><svg viewBox="0 0 202 56" id="Tatneft" xmlns="http://www.w3.org/2000/svg"><g clip-path="url(#ba)"><path d="M23.216 11.762c3.56 9.086-2.244 14.918-8.025 20.76-5.38 5.967-10.12 12.171-.588 23.336-3.56-9.084 2.245-14.917 8.02-20.753 5.386-5.981 10.125-12.177.593-23.343zM14.604.142c3.565 9.09-2.236 14.918-8.022 20.756C1.203 26.87-3.535 33.075 6.001 44.24c-3.563-9.092 2.24-14.92 8.02-20.757 5.382-5.974 10.115-12.176.582-23.341zm146.274 35.984v18.57h8.085v-6.798h8.885v-4.065h-8.885v-3.642h17.625v14.506h8.086V40.19H202v-4.064h-41.122zm-17.349 14.54v-3.219h10.544V43.38h-10.544v-3.19h13.543v-4.066h-21.628v18.572h21.795v-4.03h-13.71zM58.248 36.126H35.842v4.065h7.16v14.506h8.086V40.19h7.16v-4.064zM64.37 47.66l3.742-7.188 3.58 7.188H64.37zm9.843-11.534h-8.668l-10.091 18.57h5.255l1.659-3.187H73.7l1.654 3.188h8.955L74.213 36.125zM125.522 36.126v9.284l-12.932-9.284h-6.275v18.57h5.534V44.48l13.279 10.218h5.927V36.125h-5.533zM103.567 36.126H81.631v4.065h7.159v14.506h8.087V40.19h6.69v-4.064z"/></g><defs><clipPath id="ba"><path d="M0 0h202v56H0z"/></clipPath></defs></svg><svg viewBox="0 0 10 7" id="arrow" xmlns="http://www.w3.org/2000/svg"><path d="M.833 1.5L5 5.667 9.167 1.5"/></svg><svg viewBox="0 0 24 24" id="arrow-down" xmlns="http://www.w3.org/2000/svg"><path d="M7 9l5 5 5-5"/></svg><svg viewBox="0 0 10 16" id="arrow-left" xmlns="http://www.w3.org/2000/svg"><path d="M8.5 14.667L1.833 8 8.5 1.333"/></svg><svg viewBox="0 0 61 16" id="arrow-next" xmlns="http://www.w3.org/2000/svg"><path d="M0 8h59m0 0l-7-7m7 7l-7 7"/></svg><svg viewBox="0 0 10 16" id="arrow-right" xmlns="http://www.w3.org/2000/svg"><path d="M1.5 14.667L8.167 8 1.5 1.333"/></svg><svg viewBox="0 0 48 48" id="certificate" xmlns="http://www.w3.org/2000/svg"><path fill-rule="evenodd" clip-rule="evenodd" d="M39.754 9.39l-.002-.032a.976.976 0 00-.047-.237l-.01-.028a1 1 0 00-.047-.107l-.003-.005a.913.913 0 00-.065-.103c-.005-.009-.012-.017-.018-.025a.96.96 0 00-.081-.095L30.997.275a.944.944 0 00-.094-.082l-.026-.018a.888.888 0 00-.102-.065l-.008-.003a.984.984 0 00-.25-.09.994.994 0 00-.12-.014L30.367 0H9.094a.937.937 0 00-.938.937v40.128c0 .517.42.937.938.937h14.114v5.06a.938.938 0 001.436.795l3.57-2.24 3.571 2.24a.939.939 0 001.436-.795v-5.06h5.597c.517 0 .937-.42.937-.937V9.42l-.001-.032zM31.272 3.2l5.282 5.283h-5.282V3.2zm-8.526 25.756c-.066-.18-.173-.472-.176-.592.073-.09.327-.251.483-.35.334-.21.713-.45.987-.824.277-.379.39-.815.49-1.2.043-.17.114-.441.174-.544.033-.007.102-.017.232-.017.104 0 .221.006.345.012.142.007.289.014.442.014.337 0 .61-.038.857-.12.432-.144.777-.422 1.082-.667.168-.136.45-.363.548-.376.108.014.39.24.558.376.304.245.65.523 1.082.667.247.082.52.12.857.12.153 0 .3-.007.441-.014.124-.006.241-.012.346-.012.13 0 .199.01.232.017.06.103.13.375.174.543.1.386.212.822.49 1.2.274.375.652.614.987.825.155.099.41.26.482.35-.002.12-.11.413-.175.592-.14.38-.297.81-.297 1.287 0 .477.157.908.297 1.288.066.18.173.472.175.592-.073.09-.327.25-.482.35-.335.21-.713.45-.988.824-.277.378-.39.815-.49 1.2-.043.169-.113.441-.173.544a1.17 1.17 0 01-.232.017c-.105 0-.222-.006-.346-.012-.141-.007-.288-.015-.44-.015-.339 0-.611.039-.858.12-.432.144-.778.423-1.082.668-.166.134-.443.356-.553.376-.11-.02-.387-.242-.553-.376-.305-.245-.65-.524-1.082-.667a2.658 2.658 0 00-.857-.12c-.153 0-.3.007-.442.014-.123.006-.24.012-.345.012-.13 0-.199-.01-.232-.017-.06-.103-.13-.375-.174-.544-.1-.385-.213-.822-.49-1.2-.274-.374-.653-.614-.987-.825-.155-.098-.41-.259-.483-.35.003-.119.11-.412.176-.59.14-.38.297-.811.297-1.288 0-.478-.158-.909-.297-1.288zm8.6 16.41l-2.633-1.651a.94.94 0 00-.997 0l-2.633 1.652V36.93l.293-.011c.124-.007.24-.013.347-.013.166 0 .237.015.264.025.112.037.327.21.5.349.437.352.981.79 1.728.79.746 0 1.29-.438 1.728-.79.173-.14.387-.312.499-.35a.928.928 0 01.265-.024c.106 0 .223.006.347.013.095.004.193.008.292.01v8.438zm1.875-5.24v-3.952c.279-.378.395-.827.494-1.207.051-.2.122-.474.187-.561.064-.088.302-.239.476-.349.461-.291 1.036-.654 1.264-1.34.225-.678-.01-1.317-.198-1.832-.086-.233-.183-.497-.183-.642 0-.144.097-.409.183-.642.189-.514.423-1.154.198-1.831-.228-.686-.803-1.049-1.264-1.34-.174-.11-.412-.261-.476-.348-.065-.088-.136-.362-.187-.562-.135-.522-.303-1.171-.877-1.593-.457-.334-.986-.373-1.345-.373-.151 0-.298.007-.44.015a7.217 7.217 0 01-.346.012.919.919 0 01-.265-.025c-.111-.037-.326-.21-.498-.349-.438-.352-.983-.79-1.73-.79-.745 0-1.29.438-1.728.79-.172.139-.387.312-.498.35a.922.922 0 01-.265.024c-.106 0-.223-.006-.348-.013a8.713 8.713 0 00-.439-.014c-.358 0-.887.039-1.344.373-.575.422-.743 1.071-.877 1.593-.052.2-.123.474-.187.561-.064.088-.303.239-.477.348-.461.292-1.035.655-1.263 1.34-.226.678.009 1.318.197 1.832.086.233.183.498.183.642 0 .145-.097.41-.183.643-.188.514-.423 1.154-.197 1.831.228.686.802 1.049 1.263 1.34.175.11.413.261.477.349.064.087.135.36.187.56.098.381.215.83.494 1.208v3.952H10.03V1.875h19.366v7.546c0 .518.42.938.937.938h7.546v29.768H33.22z"/><path fill-rule="evenodd" clip-rule="evenodd" d="M13.675 10.359h12.078a.938.938 0 000-1.875H13.675a.937.937 0 100 1.875zm20.666 2.857H13.675a.937.937 0 100 1.875H34.34a.937.937 0 100-1.875zm-3.75 4.732H13.675a.938.938 0 000 1.875H30.59a.937.937 0 100-1.875zm3.75 0a.94.94 0 00-.937.938.94.94 0 00.937.937.939.939 0 00.938-.938.939.939 0 00-.938-.937z"/></svg><svg viewBox="0 0 20 20" id="check" xmlns="http://www.w3.org/2000/svg"><path d="M4.167 9.583l3.75 3.75 7.5-7.5"/></svg><svg viewBox="0 0 64 64" id="click" xmlns="http://www.w3.org/2000/svg"><path d="M63.45 52.844L52.638 42.031l5.304-5.303a1.875 1.875 0 00-.733-3.105l-31.82-10.607a1.875 1.875 0 00-2.372 2.372l10.607 31.82a1.875 1.875 0 003.105.733l5.303-5.303L52.844 63.45a1.872 1.872 0 002.652 0l7.955-7.955a1.875 1.875 0 000-2.652zm-9.28 6.63L43.356 48.66a1.875 1.875 0 00-2.651 0l-4.484 4.484L27.76 27.76l25.384 8.461-4.484 4.484a1.875 1.875 0 000 2.652L59.473 54.17l-5.303 5.303zM24.375 15c1.035 0 1.875-.84 1.875-1.875V1.875a1.875 1.875 0 00-3.75 0v11.25c0 1.036.84 1.875 1.875 1.875zM9.79 7.14a1.875 1.875 0 10-2.65 2.65l7.954 7.956a1.875 1.875 0 102.652-2.652L9.79 7.14zm5.304 23.864L7.14 38.959a1.875 1.875 0 102.652 2.652l7.955-7.955a1.875 1.875 0 10-2.652-2.652zm18.562-13.258L41.61 9.79a1.875 1.875 0 10-2.652-2.652l-7.955 7.955a1.875 1.875 0 002.652 2.652zM15 24.375c0-1.035-.84-1.875-1.875-1.875H1.875a1.875 1.875 0 000 3.75h11.25c1.036 0 1.875-.84 1.875-1.875z"/></svg><svg viewBox="0 0 48 48" id="clock" xmlns="http://www.w3.org/2000/svg"><g clip-path="url(#ka)"><path d="M24.017 47.137h-.002C11.258 47.137.88 36.758.878 24 .878 11.243 11.257.864 24.014.864 36.772.864 47.15 11.244 47.15 24c0 12.758-10.377 23.137-23.133 23.137zM24.014 2.71c-11.74 0-21.29 9.551-21.29 21.29 0 11.74 9.552 21.291 21.291 21.291h.002c11.738 0 21.287-9.55 21.287-21.29 0-11.74-9.55-21.29-21.29-21.29z"/><path d="M24.017 40.385h-.002c-9.034 0-16.384-7.35-16.385-16.385 0-9.034 7.35-16.384 16.384-16.384C33.05 7.616 40.4 14.966 40.4 24s-7.35 16.385-16.382 16.385zm-.003-30.923C15.998 9.462 9.476 15.984 9.476 24c0 8.017 6.523 14.539 14.54 14.539 8.016 0 14.537-6.522 14.537-14.539 0-8.016-6.522-14.538-14.539-14.538z"/><path d="M24.014 26.877a2.86 2.86 0 01-2.033-.84 2.883 2.883 0 01-.001-4.071 2.858 2.858 0 012.034-.843c.769 0 1.491.299 2.035.843a2.883 2.883 0 01-.001 4.07 2.858 2.858 0 01-2.034.841zm0-3.908c-.275 0-.534.107-.729.302a1.034 1.034 0 00.001 1.46 1.058 1.058 0 001.457 0 1.034 1.034 0 000-1.46 1.025 1.025 0 00-.729-.302z"/><path d="M25.396 23.542a.923.923 0 01-.653-1.576l6.371-6.37A.923.923 0 1132.42 16.9l-6.37 6.37a.918.918 0 01-.653.27zm-2.773-.01a.92.92 0 01-.653-.27l-4.73-4.732a.923.923 0 011.305-1.306l4.73 4.732a.923.923 0 01-.652 1.576z"/></g><defs><clipPath id="ka"><path d="M0 0h48v48H0z"/></clipPath></defs></svg><svg viewBox="0 0 64 64" id="gas" xmlns="http://www.w3.org/2000/svg"><g clip-path="url(#la)"><path d="M58.382 11.374v-3.75H28.919V0H12.987v7.624H5.618v3.75h3.295V60.25H5.618V64h52.764v-3.75h-3.295V11.374h3.295zM16.737 3.75h8.432v3.874h-8.432V3.75zm34.6 44.336H12.663V23.539h38.674v24.547zM12.663 60.25v-8.414h38.674v8.414H12.663zm38.674-40.461H12.663v-8.415h38.674v8.415z"/><path d="M32 43.796a6.542 6.542 0 006.535-6.535c0-4.08-4.762-8.337-5.305-8.81L32 27.382l-1.23 1.07c-.543.473-5.305 4.73-5.305 8.81A6.542 6.542 0 0032 43.796zm-.005-11.309c.277.296.579.636.88 1.007 1.214 1.49 1.91 2.863 1.91 3.767A2.788 2.788 0 0132 40.046a2.788 2.788 0 01-2.784-2.785c0-1.309 1.382-3.273 2.78-4.774z"/></g><defs><clipPath id="la"><path d="M0 0h64v64H0z"/></clipPath></defs></svg><svg viewBox="0 0 160 77" id="gazprom" xmlns="http://www.w3.org/2000/svg"><path d="M130.095 46.82c-.623 0-1.131-.477-1.131-1.067 0-.013.006-.026.006-.04V27.626l.005-.077c.059-.531.533-.95 1.115-.95.58 0 1.063.419 1.119.95l.007.076v18.087c0 .014.004.027.004.04 0 .59-.506 1.067-1.125 1.067zm2.103-23.545h-4.211c-3.56 0-3.772 2.919-3.772 4.8v17.263c0 1.885.212 4.804 3.772 4.804h4.211c3.56 0 3.778-2.919 3.778-4.804V28.076c.001-1.883-.218-4.8-3.778-4.8zm-79.258 0h9.7v3.336h-4.616v23.531H52.94V23.275zM63.392 50.14h4.97l.477-7.14h2.4l.469 7.14h4.977L74.03 23.276h-7.986l-2.652 26.866zm5.627-10.093l.877-13.44h.285l.87 13.44H69.02zm14.947.688v5.057c0 .69.502.887.798.887.468 0 .797-.426.797-.887v-6.247c0-.844-.141-1.761-2.039-1.761h-2.06v-2.957h2.135c1.453 0 1.964-.351 1.964-1.99V27.49c0-.46-.329-.878-.797-.878-.296 0-.798.19-.798.878v4.383h-5.088v-3.796c0-1.882.222-4.802 3.777-4.802h4.217c3.561 0 3.776 2.92 3.776 4.802v4.3c0 2.912-1.926 3.716-3.455 3.64v.271c3.412-.083 3.455 2.684 3.455 3.646v5.405c0 1.885-.215 4.803-3.776 4.803h-4.217c-3.555 0-3.777-2.918-3.777-4.803v-4.603h5.088zm10.027-17.46h11.766v26.867h-4.742v-23.53h-2.282v23.53h-4.742V23.275zm15.45 26.867h5.082V41.01h2.906c3.561 0 4.128-2.916 4.128-4.804v-8.13c0-1.881-.567-4.801-4.128-4.801h-7.988v26.868zm5.082-12.095V26.61h1.335c.553 0 .953.499.953 1.34v8.757c0 .845-.4 1.34-.953 1.34h-1.335v-.001zm37.677-14.772h6.615v26.867h-5.087V33.293h-.182l-2.62 16.85h-4.062l-2.616-16.85h-.18v16.85h-5.087V23.274h6.604l3.303 18.881 3.312-18.88zM42.094 26.006c-.058 2.724-.38 5.599-.787 7.315.148-2.958-.206-7.135-.878-10.397-.668-3.263-2.573-8.702-4.089-11.225-1.395 2.398-3.123 7.107-4.026 11.199-.91 4.088-.935 9.035-.935 10.522-.242-1.261-.845-5.713-.672-10.195.144-3.7.993-7.497 1.46-9.248 1.78-5.836 3.798-9.565 4.173-10.16.38.595 2.922 5.188 4.238 10.013 1.31 4.83 1.57 9.452 1.516 12.176zm-5.722 20.846c-.787-1.507-2.018-4.379-2.133-8.814-.032-4.298 1.663-7.975 2.16-8.746.444.771 1.895 3.974 2.071 8.357.12 4.29-1.278 7.664-2.098 9.203zm6.187-32.96C40.954 6.751 36.921.945 36.372 0c-.877 1.33-4.09 6.456-5.722 12.143-1.782 6.341-2.044 11.965-1.431 17.51.614 5.536 2.922 11.222 2.922 11.222 1.225 2.988 3.062 6.183 4.258 7.754 1.75-2.31 5.785-9.201 7.037-18.208.698-5.005.725-9.393-.877-16.53z"/><path d="M26.513 50.136v8.444l.037-.034a7.394 7.394 0 0110.534 0c2.913 2.938 2.913 7.715 0 10.651a.233.233 0 01-.034.037v.004a.234.234 0 00-.043.038 14.787 14.787 0 01-10.494 4.371 14.795 14.795 0 01-10.523-4.404c-5.12-5.18-5.733-13.189-1.825-19.04a14.68 14.68 0 011.825-2.238 14.756 14.756 0 0110.523-4.403V23.42C11.878 23.419 0 35.417 0 50.203c0 14.8 11.878 26.795 26.513 26.795 7.64 0 14.514-3.268 19.349-8.484V50.136H26.513zm127.552 20.516c0 2.554-1.146 3.008-4.061 3.008h-2.684V61.998h2.684v4.501h.449c2.637 0 3.612.624 3.612 2.956v1.198zM131.67 64.2h-2.033v9.469h-2.553V64.2h-2.178v-2.213h6.764V64.2zm-20.649 5.3c0 2.37-1.187 3.007-3.828 3.007v1.153h-2.61v-1.153c-2.652 0-3.853-.637-3.853-3.006v-3.645c0-2.38 1.153-2.986 3.853-2.986v-.873h2.61v.873c2.683 0 3.828.606 3.828 2.986v3.645zm-24.329-5.3h-3.67v2.295h3.285v2.21h-3.286v2.75h3.671v2.213h-6.44V61.987h6.44V64.2zm-22.257 9.46h-2.687v-5.105H60.37v5.105h-2.683V61.998h2.683v4.501h1.379v-4.501h2.685V73.66zm94.382-14.572H52.94V77h105.877V59.088zm-55.478 6.694v3.734c0 .685.217.841.809.841h.434v-5.434h-.434c-.591 0-.809.175-.809.859zm47.261 2.773h-.597V71.6h.597c.603 0 .783-.154.783-.82v-1.404c0-.67-.18-.821-.783-.821zm-42.995-3.632h-.413v5.434h.413c.597 0 .813-.17.813-.856v-3.75c0-.687-.216-.828-.813-.828z"/></svg><svg viewBox="0 0 502.664 502.664" id="icon" xmlns="http://www.w3.org/2000/svg"><path d="M153.821 358.226L0 274.337v-46.463l153.821-83.414v54.574L46.636 250.523l107.185 53.431v54.272zm26.273 29.358L282.103 115.08h32.227L212.084 387.584h-31.99zm168.749-29.358v-54.272l107.164-52.999-107.164-52.59v-53.927l153.821 83.522v46.183l-153.821 84.083z"/></svg><svg viewBox="0 0 196 52" id="lukoil" xmlns="http://www.w3.org/2000/svg"><g clip-path="url(#oa)"><path d="M51.757.673H.096V51.94h51.661V.673z"/><path d="M43.414 5.78c-1.188 0-2.087.782-2.535 1.721L34.375 18.13c-.452.983-.78 2.087-.78 2.818 0 .653.09 1.23.33 1.762l7.037 16.682H13.638c-.984 0-1.795-.98-1.795-1.885V8.77c-.207-3.928-5.897-3.926-6.022.123l.124 30.498c0 3.316 2.583 5.972 5.898 5.972h37.254l-9.08-23.058c-.251-.859-.363-1.637.248-2.66l6.007-9.696c.085-.202.208-1.057.208-1.302-.12-1.761-1.51-2.944-3.066-2.867zm-14.75.014c-1.461.01-2.921 1.012-2.921 2.976v20.563c0 2.986-4.047 2.74-4.047 0V8.77c0-3.928-5.855-3.928-5.855 0v20.727c0 4.74 3.566 7.892 7.824 7.892 4.372 0 7.927-3.152 7.927-7.892V8.77c0-2.003-1.467-2.986-2.928-2.976zM61.878 6.698v13.564c0 3.39-.348 5.275-3.13 5.275-.52 0-.867 0-1.387-.186v5.838c1.04.38 1.735.38 2.606.38 7.819 0 8.167-5.842 8.167-9.235v-9.795h4.517v18.65h6.252V6.698H61.878zm19.112 0l8.514 17.71-3.127 6.78h6.776l10.077-24.49h-6.775l-3.65 10.36-4.345-10.36h-7.47zm24.151 24.491h6.256v-10.55l6.428 10.55h7.991l-8.859-12.622 8.686-11.87h-7.471l-6.775 10.361V6.698h-6.256v24.49z"/><path d="M136.068 31.945c8.339 0 12.161-6.407 12.161-13.002 0-6.404-3.822-12.811-12.161-12.811-8.166 0-11.988 6.407-11.988 12.812 0 6.594 3.822 13 11.988 13zm0-5.841c-2.781 0-5.56-2.451-5.56-7.16 0-4.71 2.779-6.97 5.56-6.97 2.954 0 5.733 2.26 5.733 6.97 0 4.709-2.779 7.16-5.733 7.16zm15.29-19.406v24.49h6.08l8.687-14.692v14.693h6.083V6.698h-6.083l-8.687 14.696V6.698h-6.08zm10.597-1.319c2.607 0 5.213-.942 6.431-3.77L164.737.104c-.523 1.885-2.086 2.071-2.782 2.071-.52 0-2.258-.186-2.606-2.071l-3.646 1.505c1.04 2.828 3.821 3.77 6.252 3.77zm16.856 1.319v13.564c0 3.39-.351 5.275-3.129 5.275-.52 0-.868 0-1.391-.186v5.838c1.043.38 1.739.38 2.606.38 7.819 0 8.167-5.842 8.167-9.235v-9.795h4.517v18.65h6.255V6.698h-17.025zm-121.4 38.236h.88v-4.545h5.14v4.544h.881v-8.908h-.88v3.649h-5.14v-3.649h-.88v8.909zm9.141 0h4.82v-.716h-3.94v-3.916h3.784v-.715h-3.784v-2.843h3.94v-.719h-4.82v8.909zm10.622 0h.87v-1.226h.367c2.901 0 4.1-1.704 4.1-3.49 0-2.09-1.556-3.474-4.1-3.474h-.366v-1.07h-.87v1.07h-.355c-2.56 0-4.113 1.384-4.113 3.475 0 1.785 1.2 3.49 4.113 3.49h.354v1.225zm.87-7.474c2.911.037 3.55 1.387 3.55 2.759 0 2.14-1.431 2.696-3.55 2.77v-5.53zm-.87 5.53c-2.118-.075-3.549-.632-3.549-2.771 0-1.372.636-2.722 3.55-2.76v5.53zm8.517 1.944h.846v-8.19h2.387v-.719h-5.616v.719h2.383v8.19zm4.273 0h.99l2.387-3.913h.758v3.913h.883v-8.909h-2.07c-2.716 0-3.108 1.789-3.108 2.579 0 1.505 1.188 2.417 2.585 2.367l-2.425 3.963zm4.135-4.632h-1.272c-.72 0-2.152-.084-2.152-1.785 0-1.652 1.516-1.773 2.237-1.773h1.187v3.558zm3.136 4.632h.88v-4.545h5.14v4.544h.881v-8.908h-.881v3.649h-5.14v-3.649h-.88v8.909zm8.185-.001h.883l1.234-2.892h3.781l1.238 2.892h.88l-4.025-9.138-3.991 9.138zm2.437-3.595l1.554-3.646 1.591 3.646h-3.145zm6.597 3.596h.99l2.387-3.913h.758v3.913h.88v-8.909h-2.067c-2.716 0-3.108 1.789-3.108 2.579 0 1.505 1.187 2.417 2.581 2.367l-2.421 3.963zm4.135-4.632h-1.272c-.723 0-2.155-.084-2.155-1.785 0-1.652 1.519-1.773 2.24-1.773h1.187v3.558zm6.108 4.632h.881v-4.315l4.025 4.315h1.149l-4.344-4.594 4.272-4.315h-1.077l-4.025 4.156v-4.156h-.881v8.909zm11.735.279c2.669 0 4.858-1.907 4.858-4.715 0-2.806-2.189-4.703-4.858-4.703-2.632 0-4.821 1.897-4.821 4.703 0 2.809 2.189 4.715 4.821 4.715zm0-.752c-2.19 0-3.903-1.63-3.903-3.963s1.713-3.997 3.903-3.997c2.192 0 3.94 1.664 3.94 3.997s-1.748 3.963-3.94 3.963zm6.07.473h.846l.83-6.575 3.305 6.976 3.267-6.976.884 6.575h.792l-1.234-9.26-3.709 7.96-3.746-7.96-1.235 9.26zm11.578-8.909v8.909h.88v-8.19h5.141v8.19h.88v-8.909h-6.901zm8.189 8.908h.88l1.234-2.892h3.784l1.234 2.892h.881l-4.026-9.138-3.987 9.138zm2.434-3.595l1.553-3.646 1.592 3.646h-3.145zm6.828 3.596h.881v-4.545h5.14v4.544h.883v-8.908h-.883v3.649h-5.14v-3.649h-.881v8.909zm9.141-8.908v9.31l6.146-7.45v7.048h.868v-9.26l-6.131 7.4v-7.048h-.883zm8.997 8.908h.989l2.387-3.913h.758v3.913h.884v-8.909h-2.068c-2.719 0-3.11 1.789-3.11 2.579 0 1.505 1.187 2.417 2.584 2.367l-2.424 3.963zm4.134-4.632h-1.271c-.721 0-2.152-.084-2.152-1.785 0-1.652 1.516-1.773 2.239-1.773h1.184v3.558z"/></g><defs><clipPath id="oa"><path d="M0 0h196v52H0z"/></clipPath></defs></svg><svg viewBox="0 0 474 474" id="mail" xmlns="http://www.w3.org/2000/svg"><path d="M437.5 59.3h-401C16.4 59.3 0 75.7 0 95.8v282.4c0 20.1 16.4 36.5 36.5 36.5h401c20.1 0 36.5-16.4 36.5-36.5V95.8c0-20.1-16.4-36.5-36.5-36.5zm-5.3 27L239.5 251.1 46.8 86.3h385.4zM447 378.2c0 5.2-4.3 9.5-9.5 9.5h-401c-5.2 0-9.5-4.3-9.5-9.5V104.9l203.7 174.2c.1.1.3.2.4.3.1.1.3.2.4.3.3.2.5.4.8.5.1.1.2.1.3.2l1.2.6c.1 0 .2.1.3.1.3.1.6.3 1 .4.1 0 .3.1.4.1.3.1.6.2.9.2.1 0 .3.1.4.1.3.1.7.1 1 .2h.3c.4 0 .9.1 1.3.1s.9 0 1.3-.1h.3c.3 0 .7-.1 1-.2.1 0 .3-.1.4-.1.3-.1.6-.2.9-.2.1 0 .3-.1.4-.1.3-.1.6-.2 1-.4.1 0 .2-.1.3-.1l1.2-.6c.1-.1.2-.1.3-.2.3-.2.5-.3.8-.5.1-.1.3-.2.4-.3.1-.1.3-.2.4-.3L447 109.2v269z"/></svg><svg viewBox="0 0 24 24" id="phone" xmlns="http://www.w3.org/2000/svg"><path d="M2.12 7.81a18.48 18.48 0 0014.07 14.07 4.46 4.46 0 005.14-3.05l.51-1.6-5-2.49-2.38 2.38a15.001 15.001 0 01-4.55-3.05 15 15 0 01-3-4.55l2.35-2.38-2.49-5-1.6.51a4.46 4.46 0 00-3.05 5.16z"/></svg><svg viewBox="0 0 64 64" id="phone-step" xmlns="http://www.w3.org/2000/svg"><g clip-path="url(#ra)"><path d="M50.58 39.646c-1.31-1.364-2.89-2.094-4.565-2.094-1.662 0-3.256.716-4.62 2.08l-4.268 4.255c-.352-.189-.703-.365-1.04-.54a17.105 17.105 0 01-1.338-.716c-3.998-2.54-7.632-5.849-11.117-10.13-1.688-2.135-2.823-3.931-3.647-5.755 1.108-1.013 2.135-2.067 3.134-3.08.378-.378.757-.77 1.135-1.148 2.836-2.837 2.836-6.51 0-9.347l-3.688-3.688c-.418-.419-.85-.85-1.256-1.283a63.803 63.803 0 00-2.54-2.512c-1.31-1.297-2.877-1.986-4.524-1.986-1.648 0-3.242.689-4.593 1.986l-.027.027-4.593 4.633c-1.729 1.729-2.715 3.836-2.93 6.28-.325 3.945.837 7.619 1.728 10.023 2.188 5.903 5.457 11.374 10.333 17.236C18.081 50.952 25.2 56.53 33.331 60.461c3.107 1.472 7.253 3.215 11.887 3.512.283.014.58.027.85.027 3.12 0 5.741-1.121 7.794-3.35.014-.027.041-.04.055-.067.702-.851 1.512-1.621 2.363-2.445a53.22 53.22 0 001.756-1.743c1.338-1.391 2.04-3.012 2.04-4.673 0-1.675-.716-3.283-2.08-4.634l-7.416-7.442zm4.836 14.223c-.014 0-.014.014 0 0-.527.568-1.067 1.08-1.648 1.648-.878.838-1.77 1.716-2.607 2.702-1.364 1.459-2.972 2.147-5.079 2.147-.203 0-.419 0-.621-.013-4.012-.257-7.74-1.824-10.536-3.16-7.645-3.702-14.359-8.956-19.937-15.616-4.607-5.551-7.686-10.684-9.726-16.195-1.256-3.364-1.715-5.984-1.513-8.456.135-1.58.743-2.89 1.864-4.012l4.606-4.606c.662-.621 1.365-.959 2.054-.959.85 0 1.54.513 1.972.945l.04.041a67.41 67.41 0 012.431 2.418c.42.432.851.864 1.284 1.31l3.687 3.688c1.432 1.432 1.432 2.755 0 4.187-.391.392-.77.784-1.161 1.162-1.135 1.161-2.216 2.242-3.39 3.296-.028.027-.055.04-.068.067-1.162 1.162-.946 2.296-.703 3.066l.04.122c.96 2.323 2.31 4.512 4.364 7.119l.013.013c3.728 4.593 7.66 8.172 11.995 10.914.554.351 1.121.635 1.661.905.487.243.946.473 1.338.716.054.027.108.068.162.095.46.23.891.337 1.337.337 1.121 0 1.824-.702 2.053-.932l4.62-4.62c.46-.459 1.189-1.012 2.04-1.012.837 0 1.526.526 1.945.986l.027.027 7.442 7.442c1.392 1.378 1.392 2.797.014 4.228zM34.587 15.224c3.54.594 6.754 2.27 9.32 4.836a17.219 17.219 0 014.836 9.32 1.812 1.812 0 001.797 1.513c.108 0 .202-.014.31-.027a1.825 1.825 0 001.5-2.107c-.73-4.282-2.756-8.186-5.85-11.28a20.824 20.824 0 00-11.278-5.848c-1-.162-1.932.5-2.107 1.486-.176.986.473 1.945 1.472 2.107zm29.339 13.008C62.723 21.18 59.4 14.765 54.295 9.659S42.773 1.23 35.722.028c-.986-.176-1.918.5-2.094 1.486-.162 1 .5 1.931 1.5 2.107 6.294 1.067 12.035 4.052 16.6 8.604 4.566 4.566 7.538 10.307 8.605 16.601a1.812 1.812 0 001.796 1.513c.108 0 .203-.014.31-.027a1.79 1.79 0 001.487-2.08z"/></g><defs><clipPath id="ra"><path d="M0 0h64v64H0z"/></clipPath></defs></svg><svg viewBox="0 0 48 48" id="place" xmlns="http://www.w3.org/2000/svg"><g clip-path="url(#sa)"><path d="M41.889 46.31L35.56 32.923a1.185 1.185 0 00-.608-.584l-3.148-1.401 5.455-9.143c.013-.021.025-.044.037-.066a14.77 14.77 0 001.634-6.799c0-4.027-1.58-7.803-4.447-10.631A14.825 14.825 0 0023.79.002c-3.914.054-7.6 1.626-10.377 4.426-2.778 2.8-4.32 6.499-4.343 10.413a14.973 14.973 0 001.67 6.955l5.456 9.143-3.167 1.409c-.259.115-.468.32-.589.575L6.111 46.31a1.184 1.184 0 001.553 1.589l7.927-3.53 7.927 3.53c.307.136.657.136.964 0l7.927-3.53 7.928 3.53a1.183 1.183 0 001.552-1.589zM12.794 20.615a12.422 12.422 0 01-1.356-5.761c.04-6.79 5.595-12.39 12.384-12.485a12.483 12.483 0 018.999 3.617 12.472 12.472 0 013.742 8.944 12.42 12.42 0 01-1.357 5.685L25.017 37.693A1.166 1.166 0 0124 38.27c-.202 0-.706-.056-1.017-.577L12.794 20.616zM32.891 41.99a1.185 1.185 0 00-.964 0L24 45.52l-7.927-3.53a1.185 1.185 0 00-.964 0l-5.492 2.445 4.776-10.102 3.024-1.346 3.531 5.92A3.524 3.524 0 0024 40.638a3.524 3.524 0 003.051-1.733l3.531-5.918 3.025 1.346 4.775 10.1-5.491-2.444z"/><path d="M24 9.526a5.412 5.412 0 00-5.405 5.405A5.412 5.412 0 0024 20.337a5.411 5.411 0 005.406-5.406A5.412 5.412 0 0024 9.526zm0 8.442a3.04 3.04 0 01-3.037-3.037A3.04 3.04 0 0124 11.894a3.04 3.04 0 013.037 3.037A3.04 3.04 0 0124 17.968z"/></g><defs><clipPath id="sa"><path d="M0 0h48v48H0z"/></clipPath></defs></svg><svg viewBox="0 0 48 48" id="ruble" xmlns="http://www.w3.org/2000/svg"><g clip-path="url(#ta)"><g clip-path="url(#tb)"><path d="M28.364 13.09h-7.637c-.602 0-1.09.49-1.09 1.092v14.182h-5.455a1.091 1.091 0 000 2.181h5.454v3.273a1.091 1.091 0 002.182 0v-3.273h5.455a1.091 1.091 0 000-2.181h-5.455v-2.182h6.546a6.553 6.553 0 006.545-6.546 6.553 6.553 0 00-6.545-6.545zm0 10.91h-6.546v-8.727h6.546a4.368 4.368 0 014.363 4.363A4.368 4.368 0 0128.364 24z"/><path d="M24 0C10.767 0 0 10.767 0 24s10.767 24 24 24 24-10.767 24-24S37.233 0 24 0zm0 45.818C11.97 45.818 2.182 36.031 2.182 24 2.182 11.97 11.969 2.182 24 2.182c12.03 0 21.818 9.787 21.818 21.818 0 12.03-9.787 21.818-21.818 21.818z"/></g></g><defs><clipPath id="ta"><path d="M0 0h48v48H0z"/></clipPath><clipPath id="tb"><path d="M0 0h48v48H0z"/></clipPath></defs></svg><svg viewBox="0 0 48 48" id="shield" xmlns="http://www.w3.org/2000/svg"><g clip-path="url(#ua)"><path d="M23.99 27.281c.519 0 .94-.42.94-.937a.939.939 0 00-1.879 0c0 .517.421.937.94.937z"/><path d="M23.454 47.731a.939.939 0 001.092 0c9.57-6.822 19.18-9.816 19.18-23.855V6.496a.938.938 0 00-.861-.934l-2.442-.204C34.826 4.892 29.32 3.056 24.498.048a.94.94 0 00-.996 0c-4.821 3.008-10.328 4.844-15.926 5.31l-2.44.204a.938.938 0 00-.862.934v17.38c0 14.435 10.959 17.995 19.18 23.855zM6.153 7.358l1.58-.131C13.435 6.752 19.046 4.928 24 1.944c4.953 2.984 10.565 4.808 16.267 5.283l1.58.131v16.518c0 12.659-8.451 15.375-17.849 21.945-8.247-5.713-17.845-8.956-17.845-21.945V7.358z"/><path d="M23.453 40.917a.934.934 0 001.094-.024c8.504-5.875 13.543-7.808 13.543-17.016V11.581a.938.938 0 00-.8-.927 41.445 41.445 0 01-12.86-4.15.957.957 0 00-.902.02 41.42 41.42 0 01-12.818 4.13.938.938 0 00-.8.927v12.296c0 9.295 5.519 11.576 13.543 17.04zM11.789 12.38A43.273 43.273 0 0023.05 8.848v13.746a.938.938 0 001.879 0V8.84a43.305 43.305 0 0011.281 3.54v11.497c0 7.621-3.576 9.283-11.281 14.483v-8.266a.938.938 0 00-1.879 0v8.293c-7.199-4.782-11.262-6.826-11.262-14.51V12.38z"/></g><defs><clipPath id="ua"><path d="M0 0h48v48H0z"/></clipPath></defs></svg><svg viewBox="0 0 20 20" id="user" xmlns="http://www.w3.org/2000/svg"><path d="M10 8.333a3.333 3.333 0 100-6.666 3.333 3.333 0 000 6.666zm6.425 5.167a9.1 9.1 0 00-12.85 0l-.242.25v3.75h13.334v-3.75l-.242-.25z"/></svg><svg viewBox="0 0 48 48" id="way" xmlns="http://www.w3.org/2000/svg"><path fill-rule="evenodd" clip-rule="evenodd" d="M15.229 7.628a3.854 3.854 0 00-3.85-3.85 3.854 3.854 0 00-3.85 3.85 3.854 3.854 0 003.85 3.85 3.854 3.854 0 003.85-3.85zm-5.825 0c0-1.088.886-1.974 1.975-1.974s1.975.886 1.975 1.974a1.977 1.977 0 01-1.975 1.975 1.977 1.977 0 01-1.975-1.975zm27.849 16.935c-2.416 0-4.47.602-5.71 1.559l-3.363-.749a.938.938 0 00-.407 1.83l2.577.574c-.048.187-.074.38-.074.576 0 1.274 1.043 2.362 2.713 3.042l-1.501 1.544a.938.938 0 001.345 1.307l2.217-2.282c.687.117 1.426.18 2.203.18 3.977 0 6.976-1.63 6.976-3.79 0-2.161-3-3.791-6.976-3.791zm0 5.706c-3.067 0-5.102-1.153-5.102-1.916 0-.16.09-.336.26-.515a.814.814 0 00.081-.082c.7-.653 2.432-1.318 4.76-1.318 3.067 0 5.102 1.153 5.102 1.915 0 .763-2.035 1.916-5.101 1.916zM26.105 41.168l1.5-1.544a.938.938 0 00-1.344-1.307L24.043 40.6a13.246 13.246 0 00-2.202-.18c-3.977 0-6.977 1.63-6.977 3.79 0 2.161 3 3.791 6.977 3.791 3.977 0 6.976-1.63 6.976-3.79 0-1.274-1.043-2.362-2.712-3.042zm-4.264 4.957c-3.067 0-5.102-1.153-5.102-1.915 0-.763 2.035-1.916 5.102-1.916 3.066 0 5.101 1.153 5.101 1.916 0 .762-2.035 1.915-5.101 1.915z"/><path fill-rule="evenodd" clip-rule="evenodd" d="M20.451 25.573a.935.935 0 001.119-.712.937.937 0 00-.711-1.118l-2.578-.575a2.27 2.27 0 00.074-.576c0-1.757-1.954-2.943-4.193-3.477l4.184-8.378.02-.042c.425-.97.641-2 .641-3.066C19.007 3.422 15.585 0 11.378 0 7.173 0 3.75 3.422 3.75 7.629a7.573 7.573 0 00.662 3.108l4.187 8.386c-2.244.547-4.197 1.734-4.197 3.47 0 2.16 3 3.79 6.977 3.79 2.415 0 4.47-.603 5.71-1.559l3.362.748zM5.625 7.629a5.76 5.76 0 015.754-5.754 5.76 5.76 0 015.278 8.045L11.38 20.494 6.1 9.92a5.707 5.707 0 01-.475-2.291zm.652 14.963c0-.492 1.221-1.348 3.185-1.74l1.078 2.159a.937.937 0 001.678 0l1.08-2.164c1.986.376 3.182 1.23 3.182 1.745 0 .16-.091.337-.26.517a.915.915 0 00-.081.08c-.7.654-2.432 1.318-4.76 1.318-3.067 0-5.102-1.152-5.102-1.915zm23.27 12.752a.94.94 0 00-.938.938.94.94 0 00.938.937.94.94 0 00.937-.937.94.94 0 00-.937-.938zm-5.231-8.934a.94.94 0 00.937-.937.94.94 0 00-.937-.938.94.94 0 00-.938.938.94.94 0 00.938.937z"/></svg></svg>